<?xml version="1.0" encoding="UTF-8"?>
<svg width="869px" height="345px" viewBox="0 0 869 345" version="1.1" xmlns="http://www.w3.org/2000/svg" xmlns:xlink="http://www.w3.org/1999/xlink">
    <!-- Generator: Sketch 55.2 (78181) - https://sketchapp.com -->
    <title>5b4124a6d4f8bb517334cc95_5a9b0552dcda0a0001aeb72b_js-banners-new-09</title>
    <desc>Created with Sketch.</desc>
    <g id="Page-1" stroke="none" stroke-width="1" fill="none" fill-rule="evenodd">
        <g id="5b4124a6d4f8bb517334cc95_5a9b0552dcda0a0001aeb72b_js-banners-new-09">
            <g id="Group" transform="translate(350.000000, 97.000000)" fill-rule="nonzero">
                <g id="Shape">
                    <path d="M107.9,36.9 L11.8,59.8 C10.6,60.1 9.3,59.3 9,58.1 L1.6,27.2 C1.3,26 2.1,24.7 3.3,24.4 L99.4,1.5 C100.6,1.2 101.9,2 102.2,3.2 L109.6,34.1 C109.9,35.4 109.1,36.6 107.9,36.9 Z" id="Path" fill="#CFCAD3"></path>
                    <path d="M11.2,60.8 C9.7,60.8 8.4,59.8 8,58.3 L0.6,27.4 C0.4,26.5 0.5,25.7 1,24.9 C1.5,24.1 2.2,23.6 3,23.4 L99.1,0.5 C99.4,0.4 99.6,0.4 99.9,0.4 C101.4,0.4 102.7,1.4 103.1,2.9 L110.5,33.8 C110.7,34.7 110.6,35.5 110.1,36.3 C109.6,37.1 108.9,37.6 108.1,37.8 L12,60.7 C11.7,60.8 11.5,60.8 11.2,60.8 Z M100,2.4 C99.9,2.4 99.8,2.4 99.7,2.4 L3.6,25.3 C3.3,25.4 3,25.6 2.8,25.9 C2.6,26.2 2.6,26.5 2.6,26.9 L10,57.8 C10.2,58.5 10.9,58.9 11.6,58.8 L107.7,35.9 C108,35.8 108.3,35.6 108.5,35.3 C108.7,35 108.7,34.7 108.7,34.3 L101.3,3.4 C101.1,2.8 100.6,2.4 100,2.4 Z" fill="#443356"></path>
                </g>
                <g transform="translate(8.000000, 8.000000)" fill="#443356">
                    <path d="M4.8,40.5 L0.2,21.3 L89.3,0.1 L93.9,19.3 L4.8,40.5 Z M2.6,22.8 L6.2,38.1 L91.4,17.8 L87.8,2.5 L2.6,22.8 Z" id="Shape"></path>
                    <path d="M25.1,41.3 L23.4,34 L74.4,21.8 L76.1,29.1 L25.1,41.3 Z M25.8,35.5 L26.6,38.9 L73.7,27.7 L72.9,24.3 L25.8,35.5 Z" id="Shape"></path>
                    <rect id="Rectangle-path" transform="translate(46.375280, 17.418320) rotate(76.614138) translate(-46.375280, -17.418320) " x="45.375314" y="-27.3801588" width="1.99993209" height="89.5969576"></rect>
                    <rect id="Rectangle-path" transform="translate(47.781370, 23.091110) rotate(76.614138) translate(-47.781370, -23.091110) " x="46.781404" y="-21.7073688" width="1.99993209" height="89.5969576"></rect>
                    <g id="Rectangle-path" transform="translate(8.000000, 19.000000)">
                        <rect id="Rectangle" transform="translate(9.761960, 14.292480) rotate(76.608564) translate(-9.761960, -14.292480) " x="6.81199186" y="13.2924908" width="5.89993628" height="1.9999784"></rect>
                        <rect id="Rectangle" transform="translate(2.328770, 10.284950) rotate(76.602990) translate(-2.328770, -10.284950) " x="-0.37126339" y="9.28493764" width="5.40006677" height="2.00002473"></rect>
                        <rect id="Rectangle" transform="translate(7.078650, 2.960910) rotate(76.602990) translate(-7.078650, -2.960910) " x="4.37861661" y="1.96089763" width="5.40006677" height="2.00002473"></rect>
                    </g>
                    <g id="Rectangle-path" transform="translate(14.000000, 17.000000)">
                        <rect id="Rectangle" transform="translate(9.858400, 14.895500) rotate(76.608564) translate(-9.858400, -14.895500) " x="6.90843186" y="13.8955108" width="5.89993628" height="1.9999784"></rect>
                        <rect id="Rectangle" transform="translate(2.496410, 10.865760) rotate(76.602990) translate(-2.496410, -10.865760) " x="-0.20362339" y="9.86574764" width="5.40006677" height="2.00002473"></rect>
                        <rect id="Rectangle" transform="translate(7.222820, 3.444840) rotate(76.602990) translate(-7.222820, -3.444840) " x="4.52278661" y="2.44482763" width="5.40006677" height="2.00002473"></rect>
                    </g>
                    <g id="Rectangle-path" transform="translate(20.000000, 16.000000)">
                        <rect id="Rectangle" transform="translate(10.029060, 14.378080) rotate(76.608564) translate(-10.029060, -14.378080) " x="7.07909186" y="13.3780908" width="5.89993628" height="1.9999784"></rect>
                        <rect id="Rectangle" transform="translate(2.570100, 10.371460) rotate(76.602990) translate(-2.570100, -10.371460) " x="-0.12993339" y="9.37144764" width="5.40006677" height="2.00002473"></rect>
                        <rect id="Rectangle" transform="translate(7.319380, 3.047920) rotate(76.602990) translate(-7.319380, -3.047920) " x="4.61934661" y="2.04790763" width="5.40006677" height="2.00002473"></rect>
                    </g>
                    <g id="Rectangle-path" transform="translate(27.000000, 14.000000)">
                        <rect id="Rectangle" transform="translate(9.222780, 14.957940) rotate(76.608564) translate(-9.222780, -14.957940) " x="6.27281186" y="13.9579508" width="5.89993628" height="1.9999784"></rect>
                        <rect id="Rectangle" transform="translate(1.764140, 10.951370) rotate(76.602990) translate(-1.764140, -10.951370) " x="-0.93589339" y="9.95135764" width="5.40006677" height="2.00002473"></rect>
                        <rect id="Rectangle" transform="translate(6.490150, 3.530650) rotate(76.602990) translate(-6.490150, -3.530650) " x="3.79011661" y="2.53063763" width="5.40006677" height="2.00002473"></rect>
                    </g>
                    <g id="Rectangle-path" transform="translate(33.000000, 13.000000)">
                        <rect id="Rectangle" transform="translate(9.336795, 14.478430) rotate(76.602990) translate(-9.336795, -14.478430) " x="6.38675856" y="13.4784176" width="5.90007295" height="2.00002473"></rect>
                        <rect id="Rectangle" transform="translate(1.922230, 10.403220) rotate(76.614138) translate(-1.922230, -10.403220) " x="-0.777678325" y="9.40325396" width="5.39981664" height="1.99993209"></rect>
                        <rect id="Rectangle" transform="translate(6.563640, 3.036450) rotate(76.602990) translate(-6.563640, -3.036450) " x="3.86360661" y="2.03643763" width="5.40006677" height="2.00002473"></rect>
                    </g>
                    <g id="Rectangle-path" transform="translate(39.000000, 11.000000)">
                        <rect id="Rectangle" transform="translate(9.508465, 14.960060) rotate(76.602990) translate(-9.508465, -14.960060) " x="6.55842856" y="13.9600476" width="5.90007295" height="2.00002473"></rect>
                        <rect id="Rectangle" transform="translate(2.047250, 11.005280) rotate(76.614138) translate(-2.047250, -11.005280) " x="-0.652658364" y="10.005314" width="5.39981664" height="1.99993209"></rect>
                        <rect id="Rectangle" transform="translate(6.757480, 3.616460) rotate(76.602990) translate(-6.757480, -3.616460) " x="4.05744661" y="2.61644763" width="5.40006677" height="2.00002473"></rect>
                    </g>
                    <g id="Rectangle-path" transform="translate(45.000000, 10.000000)">
                        <rect id="Rectangle" transform="translate(9.662240, 14.526020) rotate(76.608564) translate(-9.662240, -14.526020) " x="6.71227186" y="13.5260308" width="5.89993628" height="1.9999784"></rect>
                        <rect id="Rectangle" transform="translate(2.232340, 10.517810) rotate(76.602990) translate(-2.232340, -10.517810) " x="-0.46769339" y="9.51779764" width="5.40006677" height="2.00002473"></rect>
                        <rect id="Rectangle" transform="translate(6.943570, 3.066870) rotate(76.614138) translate(-6.943570, -3.066870) " x="4.24366168" y="2.06690396" width="5.39981664" height="1.99993209"></rect>
                    </g>
                    <g id="Rectangle-path" transform="translate(51.000000, 8.000000)">
                        <rect id="Rectangle" transform="translate(9.735520, 15.031760) rotate(76.608564) translate(-9.735520, -15.031760) " x="6.78555186" y="14.0317708" width="5.89993628" height="1.9999784"></rect>
                        <rect id="Rectangle" transform="translate(2.375410, 11.002040) rotate(76.602990) translate(-2.375410, -11.002040) " x="-0.324623351" y="10.0020276" width="5.40006677" height="2.00002473"></rect>
                        <rect id="Rectangle" transform="translate(7.040190, 3.669630) rotate(76.614138) translate(-7.040190, -3.669630) " x="4.34028168" y="2.66966396" width="5.39981664" height="1.99993209"></rect>
                    </g>
                    <g id="Rectangle-path" transform="translate(57.000000, 7.000000)">
                        <rect id="Rectangle" transform="translate(9.929240, 14.611620) rotate(76.608564) translate(-9.929240, -14.611620) " x="6.97927186" y="13.6116308" width="5.89993628" height="1.9999784"></rect>
                        <rect id="Rectangle" transform="translate(2.472270, 10.605020) rotate(76.602990) translate(-2.472270, -10.605020) " x="-0.22776339" y="9.60500764" width="5.40006677" height="2.00002473"></rect>
                        <rect id="Rectangle" transform="translate(7.250360, 3.165980) rotate(76.608564) translate(-7.250360, -3.165980) " x="4.55038916" y="2.1659908" width="5.39994168" height="1.9999784"></rect>
                    </g>
                    <g id="Rectangle-path" transform="translate(64.000000, 5.000000)">
                        <rect id="Rectangle" transform="translate(9.002620, 15.117460) rotate(76.608564) translate(-9.002620, -15.117460) " x="6.05265186" y="14.1174708" width="5.89993628" height="1.9999784"></rect>
                        <rect id="Rectangle" transform="translate(1.643140, 11.087650) rotate(76.602990) translate(-1.643140, -11.087650) " x="-1.05689335" y="10.0876376" width="5.40006677" height="2.00002473"></rect>
                        <rect id="Rectangle" transform="translate(6.391220, 3.764810) rotate(76.602990) translate(-6.391220, -3.764810) " x="3.69118661" y="2.76479763" width="5.40006677" height="2.00002473"></rect>
                    </g>
                    <g id="Rectangle-path" transform="translate(70.000000, 4.000000)">
                        <rect id="Rectangle" transform="translate(9.239365, 14.711790) rotate(76.602990) translate(-9.239365, -14.711790) " x="6.28932856" y="13.7117776" width="5.90007295" height="2.00002473"></rect>
                        <rect id="Rectangle" transform="translate(1.740000, 10.690730) rotate(76.602990) translate(-1.740000, -10.690730) " x="-0.96003339" y="9.69071764" width="5.40006677" height="2.00002473"></rect>
                        <rect id="Rectangle" transform="translate(6.464610, 3.270710) rotate(76.602990) translate(-6.464610, -3.270710) " x="3.76457661" y="2.27069763" width="5.40006677" height="2.00002473"></rect>
                    </g>
                    <g id="Rectangle-path" transform="translate(76.000000, 2.000000)">
                        <rect id="Rectangle" transform="translate(9.410335, 15.194320) rotate(76.602990) translate(-9.410335, -15.194320) " x="6.46029856" y="14.1943076" width="5.90007295" height="2.00002473"></rect>
                        <rect id="Rectangle" transform="translate(1.940870, 11.171960) rotate(76.602990) translate(-1.940870, -11.171960) " x="-0.759163351" y="10.1719476" width="5.40006677" height="2.00002473"></rect>
                        <rect id="Rectangle" transform="translate(6.658550, 3.850620) rotate(76.602990) translate(-6.658550, -3.850620) " x="3.95851661" y="2.85060763" width="5.40006677" height="2.00002473"></rect>
                    </g>
                </g>
            </g>
            <path d="M502.6,108.7 C502.2,108.7 501.8,108.5 501.7,108.1 C499.4,102.5 496.3,97.2 492.7,92.4 C492.4,92 492.5,91.3 492.9,91 C493.3,90.7 494,90.8 494.3,91.2 C498,96.2 501.1,101.6 503.5,107.3 C503.7,107.8 503.5,108.4 503,108.6 C502.9,108.6 502.7,108.7 502.6,108.7 Z" id="Shape" fill="#443356" fill-rule="nonzero"></path>
            <path d="M506.2,105.6 C505.8,105.6 505.5,105.4 505.3,105 L502.4,99.3 C502.2,98.8 502.4,98.2 502.9,98 C503.4,97.8 504,98 504.2,98.5 L507.1,104.2 C507.3,104.7 507.1,105.3 506.6,105.5 C506.5,105.5 506.3,105.6 506.2,105.6 Z" id="Shape" fill="#443356" fill-rule="nonzero"></path>
            <rect id="Rectangle-path" fill="#443356" fill-rule="nonzero" transform="translate(509.644134, 173.319230) rotate(69.903325) translate(-509.644134, -173.319230) " x="508.64415" y="-208.325001" width="1.99996977" height="763.288463"></rect>
            <path d="M567,340.4 L566.3,338.5 L682.7,295.9 C683.2,295.7 683.6,295.3 683.8,294.8 C684,294.3 684,293.7 683.8,293.2 L630,159.8 C629.6,158.8 628.5,158.3 627.4,158.7 L303,277.4 C302.8,277.5 302.8,277.6 302.7,277.7 C302.6,277.8 302.6,277.9 302.7,278.1 L320.5,323.1 L318.6,323.8 L300.8,278.8 C300.6,278.2 300.6,277.5 300.8,276.9 C301.1,276.3 301.6,275.8 302.2,275.6 L626.7,156.8 C628.7,156.1 631,157 631.8,159.1 L685.7,292.6 C686.1,293.6 686.1,294.7 685.6,295.7 C685.2,296.7 684.3,297.5 683.3,297.8 L567,340.4 Z" id="Shape" fill="#443356" fill-rule="nonzero"></path>
            <g id="Group" transform="translate(289.000000, 0.000000)" fill-rule="nonzero">
                <path d="M40.9,100.6 C37.3,100.6 33.9,98.6 32.7,95.5 L1,14.2 C0.1,11.9 0.2,9.4 1.3,7.2 C2.4,5 4.3,3.5 6.8,2.8 C7.3,2.7 7.9,3 8,3.5 C8.1,4 7.8,4.6 7.3,4.7 C5.4,5.2 3.9,6.4 3.1,8.1 C2.3,9.7 2.2,11.6 2.9,13.4 L34.6,94.7 C35.7,97.6 39.4,99.2 42.9,98.3 L174.1,62.3 C177.5,61.4 179.9,58.1 179.4,55 L170.5,1.4 C170.4,0.9 170.8,0.3 171.3,0.3 C171.9,0.2 172.4,0.6 172.4,1.1 L181.3,54.7 C182,58.8 178.9,63 174.5,64.2 L43.3,100.2 C42.6,100.5 41.7,100.6 40.9,100.6 Z" id="Shape" fill="#443356"></path>
                <g id="Shape" transform="translate(28.000000, 42.000000)">
                    <path d="M1.4,42.3 L5.6,53.2 C6.9,56.6 11.2,58.4 15.1,57.4 L146.3,21.4 C150.2,20.3 152.9,16.6 152.3,13 L150.4,1.5 L1.4,42.3 Z" id="Path" fill="#CFCAD3"></path>
                    <path d="M12.8,58.6 C9.1,58.6 5.9,56.6 4.7,53.5 L0.1,41.6 L1.2,41.3 L151.3,0.1 L153.4,12.7 C154.1,16.8 151,21 146.6,22.2 L15.4,58.2 C14.6,58.5 13.7,58.6 12.8,58.6 Z M2.7,43 L6.5,52.8 C7.4,55.1 9.9,56.6 12.8,56.6 C13.5,56.6 14.2,56.5 14.8,56.3 L146,20.3 C149.4,19.4 151.8,16.1 151.3,13 L149.6,2.6 L2.7,43 Z" fill="#443356"></path>
                </g>
                <g transform="translate(27.000000, 9.000000)">
                    <g>
                        <path d="M12,55.4 C11.6,55.4 11.2,55.1 11,54.7 L0.5,20 C0.4,19.7 0.5,19.5 0.6,19.2 C0.7,19 1,18.8 1.2,18.7 L67.3,0.6 C67.6,0.5 67.9,0.6 68.1,0.7 C68.3,0.8 68.5,1.1 68.6,1.3 L76.1,36.8 C76.2,37.3 75.9,37.8 75.4,38 L12.2,55.3 C12.2,55.4 12.1,55.4 12,55.4 Z M2.7,20.4 L12.6,53.2 L74,36.3 L66.9,2.7 L2.7,20.4 Z" id="Shape" fill="#443356"></path>
                        <path d="M3.9,28.5 C3.6,28.5 3.3,28.3 3.2,27.9 C3.1,27.5 3.3,27.1 3.7,27 L69.1,9 C69.5,8.9 69.9,9.1 70,9.5 C70.1,9.9 69.9,10.3 69.5,10.4 L4.1,28.4 C4.1,28.4 4,28.5 3.9,28.5 Z" id="Shape" fill="#443356" opacity="0.34"></path>
                        <rect id="Rectangle-path" fill="#C659D1" transform="translate(38.845100, 27.403720) rotate(74.668498) translate(-38.845100, -27.403720) " x="37.345119" y="4.00401583" width="2.99996208" height="46.7994084"></rect>
                        <path d="M18.3,41.3 C17.9,41.3 17.5,41 17.3,40.6 C17.2,40.1 17.5,39.5 18,39.4 L51.2,30.3 C51.7,30.2 52.3,30.5 52.4,31 C52.5,31.5 52.2,32.1 51.7,32.2 L18.5,41.3 C18.4,41.3 18.3,41.3 18.3,41.3 Z" id="Shape" fill="#443356"></path>
                    </g>
                    <path d="M62.1,49.9 L59.5,42.2 C59.4,41.8 59.6,41.4 60,41.2 C60.4,41.1 60.8,41.3 61,41.7 L63.2,48.1 L123.2,31.6 L119.3,15.5 C119.2,15.1 119.4,14.7 119.8,14.6 C120.2,14.5 120.6,14.7 120.7,15.1 L125,32.6 L62.1,49.9 Z" id="Shape" fill="#443356" opacity="0.34"></path>
                </g>
                <g id="Shape" transform="translate(87.000000, 75.000000)">
                    <path d="M39.8,1.2 L3.6,11.1 L1.8,20.7 C1.3,23.3 3.7,25.4 6.2,24.7 L44.6,14.2 C47.1,13.5 48,10.4 46.3,8.5 L39.8,1.2 Z" id="Path" fill="#AAA3B2"></path>
                    <path d="M5.2,25.8 C5.2,25.8 5.2,25.8 5.2,25.8 C3.9,25.8 2.6,25.2 1.7,24.2 C0.8,23.2 0.5,21.8 0.7,20.5 L2.6,10.3 L40.1,0 L46.9,7.8 C47.9,9 48.3,10.6 47.8,12.1 C47.4,13.6 46.2,14.7 44.7,15.2 L6.3,25.7 C6,25.8 5.6,25.8 5.2,25.8 Z M4.4,11.9 L2.7,20.8 C2.6,21.5 2.7,22.3 3.2,22.9 C3.7,23.5 4.4,23.8 5.1,23.8 C5.3,23.8 5.6,23.8 5.8,23.7 L44.2,13.2 C45,13 45.7,12.3 45.9,11.5 C46.1,10.7 46,9.8 45.4,9.1 L39.4,2.3 L4.4,11.9 Z" fill="#443356"></path>
                </g>
            </g>
            <g id="Shape" opacity="0.34" transform="translate(238.000000, 24.000000)"></g>
            <g id="Shape" transform="translate(299.000000, 113.000000)" fill-rule="nonzero">
                <path d="M17.3,2.7 C11.8,5.1 8.7,10.6 9,16.2 C9.1,17.5 8.3,18.6 7.2,19.1 L3.9,20.6 C2.4,21.3 1.6,22.9 2,24.5 C2.5,26.6 4.8,27.6 6.6,26.7 L10.1,25.1 C11.2,24.6 12.5,24.7 13.4,25.6 C17.4,29.4 23.5,30.5 28.8,28.1 C35.9,24.8 38.9,16.2 35.3,9.1 C31.9,2.6 23.9,-0.2 17.3,2.7 Z" id="Path" fill="#C659D1"></path>
                <path d="M22.9,30.4 C19.1,30.4 15.5,29 12.7,26.4 C12.1,25.9 11.2,25.7 10.5,26.1 L7,27.7 C6.4,28 5.8,28.1 5.2,28.1 C3.2,28.1 1.5,26.7 1,24.8 C0.5,22.8 1.5,20.7 3.5,19.8 L6.8,18.3 C7.6,17.9 8.1,17.1 8.1,16.3 C7.8,10.1 11.4,4.3 17,1.9 C18.9,1.1 20.8,0.7 22.9,0.7 C28.5,0.7 33.7,3.9 36.3,8.7 C38.2,12.3 38.5,16.5 37.2,20.4 C35.9,24.3 33.1,27.4 29.4,29.1 C27.2,29.9 25,30.4 22.9,30.4 Z M11.3,23.8 C12.3,23.8 13.3,24.2 14,24.9 C16.4,27.2 19.5,28.4 22.8,28.4 C24.7,28.4 26.5,28 28.2,27.2 C31.4,25.7 33.8,23 35,19.7 C36.1,16.3 35.9,12.8 34.3,9.6 C32.1,5.4 27.6,2.6 22.7,2.6 C20.9,2.6 19.2,3 17.6,3.7 C12.7,5.8 9.6,10.9 9.9,16.2 C10,17.8 9,19.4 7.5,20.1 L4.2,21.6 C3.1,22.1 2.5,23.3 2.8,24.3 C3.1,25.5 4.2,26.1 5.1,26.1 C5.4,26.1 5.8,26 6.1,25.9 L9.6,24.3 C10.1,24 10.7,23.8 11.3,23.8 Z" fill="#443356"></path>
            </g>
            <circle id="Oval" fill="#443356" fill-rule="nonzero" cx="321.8" cy="128.5" r="9.2"></circle>
            <g id="Shape" transform="translate(0.000000, 20.000000)" fill-rule="nonzero">
                <path d="M68.6,121.3 L103.1,127 C107.2,127.7 109,132.5 106.3,135.7 L79,168.3 C75.7,172.3 69.3,171.4 67.2,166.7 L3.1,24.9 C-2.5,12.4 8.3,-1.2 21.7,1.5 L160.6,27.8 L153.6,45.4 L24.5,20.4 L74.9,150 C75.5,151.5 77.4,151.8 78.5,150.6 L88.9,137.9 C89.5,137.1 89.1,136 88.1,135.8 L68,132.1" id="Path" fill="#FFFFFF"></path>
                <path d="M73.7,171.8 C73.3,171.8 73,171.8 72.6,171.7 C69.8,171.3 67.5,169.6 66.4,167.1 L2.2,25.3 C-0.6,19.1 0.2,12.2 4.5,6.9 C8.7,1.6 15.2,-0.8 21.9,0.5 L160.8,26.8 C161.1,26.9 161.3,27 161.5,27.3 C161.6,27.6 161.7,27.9 161.6,28.2 L154.6,45.8 C154.4,46.2 154,46.5 153.5,46.4 L26,21.8 L68.6,131.2 L88.2,134.8 C89,134.9 89.6,135.5 89.9,136.3 C90.2,137.1 90,137.9 89.5,138.5 L79.1,151.2 C78.4,152.1 77.3,152.5 76.2,152.3 C75.1,152.1 74.2,151.4 73.8,150.4 L66.8,132.5 C66.8,132.5 66.8,132.5 66.8,132.4 L23.5,20.8 C23.4,20.5 23.4,20.1 23.7,19.8 C23.9,19.5 24.3,19.4 24.7,19.5 L153,44.3 L159.3,28.6 L21.5,2.5 C15.6,1.3 9.8,3.4 6,8.2 C2.2,12.9 1.5,19 4,24.5 L68.2,166.3 C69.1,168.2 70.8,169.5 72.9,169.8 C75,170.1 77,169.3 78.3,167.7 L105.6,135.1 C106.6,133.9 106.9,132.3 106.3,130.8 C105.8,129.3 104.5,128.3 103,128 L68.5,122.3 C68,122.2 67.6,121.7 67.7,121.2 C67.8,120.7 68.3,120.3 68.8,120.4 L103.3,126.1 C105.6,126.5 107.4,128 108.2,130.1 C109,132.3 108.6,134.6 107.1,136.3 L79.8,168.9 C78.3,170.7 76,171.8 73.7,171.8 Z M69.5,133.4 L75.8,149.7 C76,150.2 76.5,150.3 76.6,150.4 C76.8,150.4 77.3,150.4 77.6,150 L88,137.3 C88.1,137.2 88.1,137.1 88,137 C88,136.9 87.9,136.8 87.8,136.8 L69.5,133.4 Z" fill="#443356"></path>
            </g>
            <g id="Shape" transform="translate(7.000000, 131.000000)" fill-rule="nonzero">
                <path d="M43.3,18.3 L5.9,11.4 C2.4,10.8 0.6,6.7 2.6,3.7 C3.7,2 5.7,1.2 7.6,1.5 L37.9,6.4" id="Path" fill="#FFFFFF"></path>
                <path d="M43.3,19.3 C43.2,19.3 43.2,19.3 43.1,19.3 L5.7,12.4 C3.7,12 2,10.7 1.2,8.9 C0.4,7 0.6,4.9 1.7,3.2 C3,1.2 5.4,0.2 7.7,0.5 L38,5.4 C38.5,5.5 38.9,6 38.8,6.5 C38.7,7 38.2,7.4 37.7,7.3 L7.4,2.4 C5.8,2.1 4.2,2.8 3.4,4.2 C2.7,5.4 2.5,6.7 3.1,8 C3.6,9.3 4.7,10.1 6.1,10.4 L43.5,17.3 C44,17.4 44.4,17.9 44.3,18.5 C44.2,18.9 43.8,19.3 43.3,19.3 Z" id="Path" fill="#443356"></path>
            </g>
            <g id="Shape" transform="translate(81.000000, 28.000000)" fill-rule="nonzero">
                <g id="Group">
                    <path d="M17.1,1.2 C4.5,7.4 -1.4,17.9 2.7,33.5 L75.9,47.7 L89,14.8 L17.1,1.2 Z" id="Path" fill="#9784D3"></path>
                    <path d="M75.9,48.7 C75.8,48.7 75.8,48.7 75.7,48.7 L2.5,34.5 C2.1,34.4 1.8,34.1 1.7,33.8 C-2.3,18.7 2.9,7.1 16.6,0.3 C16.8,0.2 17,0.2 17.2,0.2 L89,13.8 C89.3,13.9 89.5,14 89.7,14.3 C89.8,14.6 89.9,14.9 89.8,15.2 L76.7,48.1 C76.6,48.5 76.3,48.7 75.9,48.7 Z M3.5,32.7 L75.2,46.6 L87.5,15.6 L17.2,2.3 C4.7,8.6 0.1,18.8 3.5,32.7 Z" id="Shape" fill="#443356"></path>
                </g>
                <g id="Group" transform="translate(72.000000, 13.000000)">
                    <path d="M3.9,34.7 L17,1.8 C-6.7,6.9 3.9,34.7 3.9,34.7 Z" id="Path" fill="#CFCAD3"></path>
                    <path d="M3.9,35.7 C3.9,35.7 3.9,35.7 3.9,35.7 C3.5,35.7 3.1,35.4 3,35.1 C2.8,34.5 -2.4,20.5 3.1,10.3 C5.7,5.5 10.3,2.3 16.8,0.9 C17.2,0.8 17.5,0.9 17.8,1.2 C18,1.5 18.1,1.9 18,2.2 L4.9,35.1 C4.6,35.5 4.3,35.7 3.9,35.7 Z M15.3,3.3 C10.4,4.7 6.9,7.4 4.8,11.2 C1,18.1 2.8,27.3 4,31.7 L15.3,3.3 Z" id="Shape" fill="#443356"></path>
                </g>
            </g>
            <g id="Shape" transform="translate(135.000000, 119.000000)" fill="#443356" fill-rule="nonzero">
                <g id="Group" transform="translate(28.000000, 27.000000)">
                    <path d="M64.6,96.1 C64.5,96.1 64.4,96.1 64.3,96.1 C42.6,89.5 21.3,81.1 0.9,71.3 C0.4,71.1 0.2,70.5 0.4,70 C10.4,46.9 20.5,23.8 30.5,0.7 C30.6,0.5 30.8,0.3 31.1,0.2 C31.4,0.1 31.6,0.1 31.9,0.2 C50.6,9 70.1,16.7 89.8,22.8 C90.1,22.9 90.3,23.1 90.4,23.3 C90.5,23.5 90.5,23.8 90.5,24.1 L86,37.1 C85.8,37.6 85.2,37.9 84.7,37.7 C84.2,37.5 83.9,36.9 84.1,36.4 L88.3,24.4 C69.2,18.3 50.3,10.9 32.1,2.4 C22.3,24.9 12.5,47.4 2.7,69.9 C22.5,79.4 43.1,87.4 64,93.9 C69.8,77.4 75.5,60.9 81.3,44.4 C81.5,43.9 82.1,43.6 82.6,43.8 C83.1,44 83.4,44.6 83.2,45.1 C77.3,61.9 71.5,78.7 65.6,95.5 C65.4,95.8 65,96.1 64.6,96.1 Z" id="Path"></path>
                    <path d="M48.9,18.6 C48.8,18.6 48.6,18.6 48.5,18.5 C44,16.6 39.5,14.7 35,12.7 C34.5,12.5 34.3,11.9 34.5,11.4 C34.7,10.9 35.3,10.7 35.8,10.9 C40.2,12.9 44.7,14.9 49.2,16.7 C49.7,16.9 50,17.5 49.7,18 C49.7,18.3 49.3,18.6 48.9,18.6 Z" id="Path"></path>
                    <path d="M66.2,32.5 C66.1,32.5 66,32.5 65.9,32.4 C54.6,28.3 43.4,23.8 32.5,18.9 C32,18.7 31.8,18.1 32,17.6 C32.2,17.1 32.8,16.9 33.3,17.1 C44.2,22 55.3,26.6 66.5,30.6 C67,30.8 67.3,31.4 67.1,31.9 C67,32.2 66.6,32.5 66.2,32.5 Z" id="Path"></path>
                    <path d="M73.3,42.3 C73.2,42.3 73.1,42.3 73,42.2 C58.4,37.3 43.8,31.6 29.7,25.2 C29.2,25 29,24.4 29.2,23.9 C29.4,23.4 30,23.2 30.5,23.4 C44.5,29.7 59,35.4 73.6,40.3 C74.1,40.5 74.4,41 74.2,41.6 C74.1,42 73.7,42.3 73.3,42.3 Z" id="Path"></path>
                    <path d="M61.3,45.5 C61.2,45.5 61.1,45.5 61,45.4 C49.6,41.3 38.1,36.6 27.1,31.6 C26.6,31.4 26.4,30.8 26.6,30.3 C26.8,29.8 27.4,29.6 27.9,29.8 C38.9,34.8 50.3,39.4 61.7,43.5 C62.2,43.7 62.5,44.3 62.3,44.8 C62.1,45.3 61.7,45.5 61.3,45.5 Z" id="Path"></path>
                    <path d="M68.5,55.6 C68.4,55.6 68.3,55.6 68.2,55.5 C53.3,50.5 38.5,44.7 24.2,38.2 C23.7,38 23.5,37.4 23.7,36.9 C23.9,36.4 24.5,36.2 25,36.4 C39.2,42.9 53.9,48.7 68.8,53.6 C69.3,53.8 69.6,54.3 69.4,54.9 C69.3,55.3 68.9,55.6 68.5,55.6 Z" id="Path"></path>
                    <path d="M56.2,59 C56.1,59 56,59 55.9,58.9 C44.3,54.7 32.7,50 21.4,44.9 C20.9,44.7 20.7,44.1 20.9,43.6 C21.1,43.1 21.7,42.9 22.2,43.1 C33.4,48.2 45,52.9 56.5,57.1 C57,57.3 57.3,57.9 57.1,58.4 C57,58.7 56.6,59 56.2,59 Z" id="Path"></path>
                    <path d="M61,76.4 C60.9,76.4 60.8,76.4 60.7,76.3 C54,74.1 47.3,71.7 40.8,69.2 C40.3,69 40,68.4 40.2,67.9 C40.4,67.4 41,67.1 41.5,67.3 C48,69.8 54.7,72.2 61.3,74.4 C61.8,74.6 62.1,75.1 61.9,75.7 C61.8,76.1 61.4,76.4 61,76.4 Z" id="Path"></path>
                    <path d="M58.4,83.6 C58.3,83.6 58.2,83.6 58.1,83.5 C53.9,82.1 49.7,80.6 45.6,79.1 C45.1,78.9 44.8,78.3 45,77.8 C45.2,77.3 45.8,77 46.3,77.2 C50.4,78.7 54.6,80.2 58.8,81.5 C59.3,81.7 59.6,82.2 59.4,82.8 C59.2,83.4 58.8,83.6 58.4,83.6 Z" id="Path"></path>
                </g>
                <g id="Group">
                    <path d="M30.8,84.5 C30.6,84.5 30.4,84.5 30.3,84.4 C20.4,78.3 10.5,71.8 1.1,64.9 C0.7,64.6 0.6,64 0.9,63.5 C14.9,42.5 28.9,21.6 42.9,0.6 C43.1,0.4 43.3,0.2 43.6,0.2 C43.9,0.2 44.1,0.2 44.4,0.4 C61.2,12.4 79,23.4 97.3,33 C97.5,33.1 97.7,33.3 97.8,33.6 C97.9,33.9 97.8,34.1 97.7,34.4 L93.3,42.1 C93,42.6 92.4,42.8 91.9,42.5 C91.4,42.2 91.2,41.6 91.5,41.1 L95.4,34.3 C77.6,24.9 60.4,14.3 44,2.7 C30.4,23.1 16.7,43.5 3.1,63.9 C12.3,70.5 21.8,76.8 31.4,82.7 C31.9,83 32,83.6 31.7,84.1 C31.5,84.3 31.2,84.5 30.8,84.5 Z" id="Path"></path>
                    <path d="M57.9,21.6 C57.7,21.6 57.5,21.5 57.4,21.4 C53.3,18.8 49.2,16 45.2,13.3 C44.7,13 44.6,12.4 44.9,11.9 C45.2,11.4 45.8,11.3 46.3,11.6 C50.3,14.3 54.4,17.1 58.4,19.7 C58.9,20 59,20.6 58.7,21.1 C58.5,21.5 58.2,21.6 57.9,21.6 Z" id="Path"></path>
                    <path d="M57.7,29.8 C57.5,29.8 57.3,29.8 57.2,29.6 C53,26.9 49.4,24.5 45.7,21.9 C44.3,20.9 42.9,20 41.4,18.9 C40.9,18.6 40.8,18 41.1,17.5 C41.4,17 42,16.9 42.5,17.2 C44,18.2 45.4,19.2 46.8,20.2 C50.5,22.8 54,25.2 58.2,27.9 C58.7,28.2 58.8,28.8 58.5,29.3 C58.4,29.7 58.1,29.8 57.7,29.8 Z" id="Path"></path>
                    <path d="M54.7,36.1 C54.5,36.1 54.3,36.1 54.2,35.9 C49.6,33.1 45.8,30.4 41.8,27.6 C40.5,26.7 39.1,25.7 37.7,24.8 C37.2,24.5 37.1,23.9 37.4,23.4 C37.7,22.9 38.3,22.8 38.8,23.1 C40.2,24.1 41.6,25 42.9,26 C46.9,28.8 50.7,31.5 55.2,34.3 C55.7,34.6 55.8,35.2 55.5,35.7 C55.4,35.9 55.1,36.1 54.7,36.1 Z" id="Path"></path>
                    <path d="M49,49.2 C48.8,49.2 48.6,49.2 48.5,49.1 C43,45.7 38.4,42.5 33.5,39.1 C32.4,38.3 31.2,37.5 30,36.7 C29.5,36.4 29.4,35.8 29.7,35.3 C30,34.8 30.6,34.7 31.1,35 C32.3,35.8 33.4,36.6 34.6,37.4 C39.5,40.8 44.1,44 49.5,47.4 C50,47.7 50.1,48.3 49.8,48.8 C49.6,49 49.3,49.2 49,49.2 Z" id="Path"></path>
                    <path d="M38.5,51 C38.3,51 38.1,50.9 37.9,50.8 C34.8,48.7 31.8,46.7 28.7,44.5 L25.9,42.6 C25.4,42.3 25.3,41.7 25.6,41.2 C25.9,40.7 26.5,40.6 27,40.9 L29.8,42.8 C32.9,45 35.9,47.1 39,49.1 C39.5,49.4 39.6,50 39.3,50.5 C39.1,50.9 38.8,51 38.5,51 Z" id="Path"></path>
                </g>
            </g>
            <path d="M238.4,166.1 C240.4,170.6 243,176.6 245.6,182.6 L257.9,210.9 C258.4,212.1 259.8,212.7 261,212.1 C262.2,211.6 262.8,210.2 262.2,209 L249.9,180.7 C247.3,174.7 244.7,168.7 242.7,164.2 C242.7,164.2 242.7,164.2 242.7,164.2 C242.3,163.2 241.7,162.3 241,161.5 C241,161.5 240.9,161.4 240.9,161.4 C240.2,160.6 239.6,159.9 239,159.4 C237.9,158.3 237.3,157.7 237.3,157.7 C237.3,157.7 237.3,158.6 237.4,160.1 C237.4,160.9 237.5,161.8 237.6,162.8 C237.6,162.9 237.6,162.9 237.6,163 C237.7,164.1 237.9,165.1 238.4,166.1 C238.4,166.1 238.4,166.1 238.4,166.1 Z" id="Shape" fill="#443356" fill-rule="nonzero"></path>
            <path d="M327.8,218.4 C325.9,218.4 324,218.2 322.1,217.9 C313.9,216.4 306.8,211.8 302.1,205 C297.4,198.2 295.6,189.9 297.1,181.7 C299.8,167 312.7,156.3 327.6,156.3 C329.5,156.3 331.4,156.5 333.3,156.8 C350.1,159.9 361.3,176.1 358.2,193 C355.6,207.7 342.8,218.4 327.8,218.4 Z M327.7,158.2 C313.7,158.2 301.7,168.2 299.1,182 C297.7,189.6 299.3,197.4 303.7,203.8 C308.1,210.2 314.7,214.5 322.4,215.9 C324.2,216.2 325.9,216.4 327.7,216.4 C341.7,216.4 353.7,206.4 356.3,192.6 C359.2,176.8 348.7,161.6 333,158.7 C331.3,158.4 329.5,158.2 327.7,158.2 Z" id="Shape" fill="#443356" fill-rule="nonzero"></path>
            <path d="M335.1,204.3 C334.3,204.3 333.5,204.1 332.8,203.7 L320.7,197 C320,196.6 319.2,196.7 318.8,197.2 L318.2,198 C317.3,199.2 315.8,199.8 314.2,199.8 C313.3,199.8 312.4,199.6 311.5,199.2 C309.7,198.4 308.4,196.8 308.1,194.9 L307.5,191.4 C307.3,190.2 307.5,189.1 308.2,188.2 C311.3,183.7 314.7,175.6 315.8,170.2 C316,169.1 316.7,168.1 317.6,167.4 L320.7,165.3 C321.6,164.7 322.6,164.4 323.7,164.4 C325.5,164.4 327.2,165.1 328.4,166.5 C329.5,167.6 329.9,169.2 329.8,170.7 L329.7,171.5 C329.6,172.1 330.2,172.7 330.9,172.9 L344.1,176.9 C345.4,177.3 346.5,178.2 347,179.3 C347.4,180.3 347.5,181.3 347.1,182.2 L338.7,202 C338.1,203.5 336.7,204.3 335.1,204.3 Z M319.8,194.8 C320.4,194.8 321.1,195 321.7,195.3 L333.8,202 C334.2,202.2 334.7,202.4 335.2,202.4 C336,202.4 336.7,202 336.9,201.4 L345.3,181.6 C345.5,181.1 345.4,180.6 345.2,180.3 C344.9,179.7 344.3,179.2 343.5,178.9 L330.3,174.9 C328.6,174.4 327.5,172.8 327.7,171.3 L327.8,170.5 C327.9,169.6 327.6,168.6 327,167.9 C326.2,167 325,166.5 323.8,166.5 C323.1,166.5 322.4,166.7 321.9,167 L318.8,169.1 C318.3,169.5 317.9,170 317.8,170.6 C316.7,176.2 313.2,184.6 309.9,189.3 C309.5,189.8 309.4,190.4 309.5,191.1 L310.1,194.6 C310.3,195.8 311.2,196.9 312.3,197.4 C313.9,198.1 315.7,197.8 316.6,196.8 L317.2,196 C317.8,195.2 318.7,194.8 319.8,194.8 Z" id="Shape" fill="#443356" fill-rule="nonzero"></path>
            <path d="M321.6,207.7 C320.2,207.7 318.8,207.2 317.7,206.2 L315.1,203.8 C314.2,203 313.7,202 313.7,200.8 C313.7,200.3 313.6,199.9 313.6,199.4 C313.5,198.9 313.9,198.4 314.5,198.3 C315.1,198.3 315.5,198.6 315.6,199.2 C315.7,199.7 315.7,200.2 315.7,200.7 C315.7,201.3 316,201.9 316.5,202.3 L319.1,204.7 C320,205.5 321.3,205.8 322.6,205.5 C324.3,205.1 325.6,203.8 325.6,202.4 L325.6,201.4 C325.6,200.6 325.9,199.9 326.5,199.3 C326.9,198.9 327.5,198.9 327.9,199.3 C328.3,199.7 328.3,200.3 327.9,200.7 C327.7,200.9 327.5,201.2 327.5,201.5 L327.5,202.5 C327.5,204.8 325.6,206.9 323,207.6 C322.5,207.6 322,207.7 321.6,207.7 Z" id="Shape" fill="#443356" fill-rule="nonzero"></path>
            <path d="M311,186.3 C310.6,186.3 310.2,186.1 310.1,185.7 C309.6,184.3 309,183.1 308.5,182.1 C308,181.1 307.9,179.9 308.2,178.8 L309.3,175.2 C310.1,172.6 313.1,170.9 316.1,171.4 C316.6,171.5 317,172 316.9,172.5 C316.8,173 316.3,173.4 315.8,173.3 C313.8,173 311.8,174.1 311.2,175.8 L310.1,179.4 C309.9,180 309.9,180.6 310.2,181.2 C310.8,182.3 311.3,183.6 311.9,185 C312.1,185.5 311.8,186.1 311.3,186.3 C311.2,186.3 311.1,186.3 311,186.3 Z" id="Shape" fill="#443356" fill-rule="nonzero"></path>
            <path d="M340.7,177.6 C340.3,177.6 339.9,177.3 339.7,176.9 L338.6,172.9 C338.5,172.4 338.1,172.1 337.8,171.9 C337.2,171.6 336.4,171.6 335.6,171.8 L329.1,174.3 C328.6,174.5 328,174.2 327.8,173.7 C327.6,173.2 327.9,172.6 328.4,172.4 L334.9,169.9 C336.2,169.4 337.6,169.5 338.7,170 C339.6,170.5 340.3,171.3 340.6,172.2 L341.7,176.2 C341.8,176.7 341.5,177.3 341,177.4 C340.9,177.6 340.8,177.6 340.7,177.6 Z" id="Shape" fill="#443356" fill-rule="nonzero"></path>
            <g id="Shape" transform="translate(538.000000, 7.000000)" fill="#443356" fill-rule="nonzero">
                <g id="Group" transform="translate(26.000000, 3.000000)">
                    <path d="M22.3,74.7 C21.9,74.7 21.5,74.4 21.3,74 C14.5,52 7.7,30.1 1,8.1 C0.9,7.8 0.9,7.6 1.1,7.3 C1.2,7.1 1.5,6.9 1.7,6.8 C8.6,4.9 15.5,2.8 22.2,0.6 C22.7,0.4 23.3,0.7 23.5,1.2 C23.7,1.7 23.4,2.3 22.9,2.5 C16.4,4.6 9.8,6.7 3.3,8.5 C9.9,29.8 16.5,51.2 23.1,72.5 C42.3,67.3 61.4,60.7 79.6,52.7 C73.8,37.9 68,23.1 62.2,8.2 C62,7.7 62.3,7.1 62.8,6.9 C63.3,6.7 63.9,6.9 64.1,7.5 C70,22.6 76,37.7 81.9,52.8 C82.1,53.3 81.9,53.9 81.4,54.1 C62.5,62.4 42.7,69.3 22.8,74.6 C22.5,74.7 22.4,74.7 22.3,74.7 Z" id="Path"></path>
                    <path d="M11.2,13.9 C10.8,13.9 10.4,13.6 10.2,13.2 C10,12.7 10.3,12.1 10.9,12 C15.2,10.8 19.4,9.4 23.6,8.1 C24.1,7.9 24.7,8.2 24.9,8.7 C25.1,9.2 24.8,9.8 24.3,10 C20.1,11.4 15.8,12.7 11.5,14 C11.3,13.8 11.2,13.9 11.2,13.9 Z" id="Path"></path>
                    <path d="M13,19.7 C12.6,19.7 12.2,19.4 12,19 C11.8,18.5 12.1,17.9 12.7,17.8 C23.1,14.8 33.6,11.2 43.7,7.4 C44.2,7.2 44.8,7.5 45,8 C45.2,8.5 44.9,9.1 44.4,9.3 C34.2,13.2 23.7,16.7 13.2,19.8 C13.2,19.7 13.1,19.7 13,19.7 Z" id="Path"></path>
                    <path d="M14.9,25.7 C14.5,25.7 14.1,25.4 13.9,25 C13.7,24.5 14,23.9 14.6,23.8 C28.1,19.9 41.5,15.2 54.5,9.9 C55,9.7 55.6,9.9 55.8,10.4 C56,10.9 55.8,11.5 55.3,11.7 C42.2,17 28.8,21.7 15.2,25.6 C15.1,25.7 15,25.7 14.9,25.7 Z" id="Path"></path>
                    <path d="M16.9,31.8 C16.5,31.8 16.1,31.5 15.9,31.1 C15.7,30.6 16.1,30 16.6,29.9 C27.2,26.8 37.8,23.3 48.1,19.3 C48.6,19.1 49.2,19.4 49.4,19.9 C49.6,20.4 49.3,21 48.8,21.2 C38.4,25.2 27.8,28.7 17.1,31.8 C17.1,31.8 17,31.8 16.9,31.8 Z" id="Path"></path>
                    <path d="M18.9,38 C18.5,38 18.1,37.7 17.9,37.3 C17.7,36.8 18.1,36.2 18.6,36.1 C32.3,32.1 45.9,27.4 59.1,22 C59.6,21.8 60.2,22 60.4,22.5 C60.6,23 60.4,23.6 59.9,23.8 C46.6,29.2 32.9,34 19.2,38 C19,38 18.9,38 18.9,38 Z" id="Path"></path>
                    <path d="M20.9,44.3 C20.5,44.3 20.1,44 19.9,43.6 C19.7,43.1 20.1,42.5 20.6,42.4 C31.4,39.3 42.2,35.7 52.7,31.7 C53.2,31.5 53.8,31.8 54,32.3 C54.2,32.8 53.9,33.4 53.4,33.6 C42.9,37.6 32,41.3 21.2,44.4 C21,44.3 21,44.3 20.9,44.3 Z" id="Path"></path>
                    <path d="M48.6,49.7 C48.2,49.7 47.8,49.4 47.7,49 C47.5,48.5 47.8,47.9 48.3,47.7 C54.3,45.6 60.4,43.3 66.3,40.8 C66.8,40.6 67.4,40.8 67.6,41.3 C67.8,41.8 67.6,42.4 67.1,42.6 C61.2,45 55.1,47.3 49.1,49.5 C48.9,49.6 48.8,49.7 48.6,49.7 Z" id="Path"></path>
                    <path d="M57.9,53.7 C57.5,53.7 57.1,53.5 57,53.1 C56.8,52.6 57.1,52 57.6,51.8 C61.3,50.4 65.1,48.9 68.8,47.4 C69.3,47.2 69.9,47.4 70.1,47.9 C70.3,48.4 70.1,49 69.6,49.2 C65.9,50.7 62.1,52.2 58.3,53.6 C58.1,53.7 58,53.7 57.9,53.7 Z" id="Path"></path>
                </g>
                <g id="Group">
                    <path d="M9.4,71.1 C8.9,71.1 8.5,70.7 8.4,70.2 C5.6,47.4 2.8,24.5 0.1,1.7 C1.56819002e-15,1.2 0.4,0.7 1,0.6 C1.5,0.5 2,0.9 2.1,1.5 C4.8,24 7.6,46.5 10.3,69 C20.5,68.1 30.9,66.9 41,65.2 C41.6,65.1 42.1,65.5 42.1,66 C42.2,66.5 41.8,67.1 41.3,67.1 C30.8,68.9 20.1,70.2 9.4,71.1 C9.5,71.1 9.5,71.1 9.4,71.1 Z" id="Path"></path>
                    <path d="M9.3,9.3 C8.8,9.3 8.4,8.9 8.3,8.4 C8.2,7.9 8.6,7.4 9.2,7.3 C13.6,6.8 18.1,6.3 22.4,5.7 C22.9,5.6 23.5,6 23.5,6.6 C23.6,7.1 23.2,7.7 22.6,7.7 C18.2,8.3 13.8,8.9 9.3,9.3 C9.3,9.3 9.3,9.3 9.3,9.3 Z" id="Path"></path>
                    <path d="M10.1,15.4 C9.6,15.4 9.2,15 9.1,14.5 C9,14 9.4,13.5 10,13.4 C11.6,13.2 13.2,13.1 14.7,12.9 C18.8,12.5 22.7,12.1 27.2,11.4 C27.8,11.3 28.3,11.7 28.3,12.2 C28.3,12.7 28,13.3 27.5,13.3 C23,14 19.1,14.4 14.9,14.8 C13.4,14.9 11.8,15.1 10.2,15.3 C10.1,15.4 10.1,15.4 10.1,15.4 Z" id="Path"></path>
                    <path d="M10.9,21.6 C10.4,21.6 10,21.2 9.9,20.7 C9.8,20.2 10.2,19.7 10.8,19.6 C12.4,19.4 13.9,19.3 15.3,19.1 C19.8,18.7 24,18.2 28.8,17.5 C29.3,17.4 29.9,17.8 29.9,18.3 C29.9,18.8 29.6,19.4 29.1,19.4 C24.2,20.1 20,20.6 15.5,21 C14,21.1 12.6,21.3 11,21.5 C10.9,21.6 10.9,21.6 10.9,21.6 Z" id="Path"></path>
                    <path d="M12.5,34.4 C12,34.4 11.6,34 11.5,33.5 C11.4,33 11.8,32.5 12.4,32.4 C13.7,32.3 15,32.1 16.2,32 C21.6,31.4 26.7,30.9 32.5,30 C33,29.9 33.6,30.3 33.6,30.8 C33.7,31.3 33.3,31.9 32.8,31.9 C27,32.8 21.9,33.3 16.4,33.9 C15.2,34 13.9,34.2 12.6,34.3 C12.6,34.4 12.6,34.4 12.5,34.4 Z" id="Path"></path>
                    <path d="M13.4,40.9 C12.9,40.9 12.5,40.5 12.4,40 C12.3,39.5 12.7,39 13.3,38.9 L16.4,38.6 C19.9,38.2 23.1,37.9 26.4,37.5 C27,37.4 27.4,37.8 27.5,38.4 C27.6,38.9 27.2,39.4 26.6,39.5 C23.3,39.9 20,40.2 16.5,40.6 L13.4,40.9 C13.5,40.9 13.4,40.9 13.4,40.9 Z" id="Path"></path>
                </g>
            </g>
            <path d="M407.5,152.4 C407.4,152.4 407.3,152.4 407.2,152.4 C406.7,152.2 406.4,151.7 406.6,151.1 C408.2,146.2 413.7,132.8 414,132.3 C414.2,131.8 414.8,131.5 415.3,131.8 C415.8,132 416.1,132.6 415.8,133.1 C415.7,133.2 410.1,146.9 408.5,151.8 C408.3,152.1 407.9,152.4 407.5,152.4 Z" id="Shape" fill="#443356" fill-rule="nonzero"></path>
            <path d="M402.7,152.5 C402.7,152.5 402.7,152.5 402.7,152.5 C402.1,152.4 401.7,152 401.7,151.4 C402.1,147.2 405,137.9 405.1,137.5 C405.3,137 405.8,136.7 406.4,136.8 C406.9,137 407.2,137.5 407.1,138.1 C407.1,138.2 404.2,147.5 403.8,151.6 C403.7,152.1 403.2,152.5 402.7,152.5 Z" id="Shape" fill="#443356" fill-rule="nonzero"></path>
            <path d="M396.4,154.8 C396.3,154.8 396.3,154.8 396.2,154.8 C395.7,154.7 395.3,154.2 395.4,153.7 L397.2,142.4 C397.3,141.9 397.8,141.5 398.3,141.6 C398.8,141.7 399.2,142.2 399.1,142.7 L397.3,154 C397.3,154.4 396.9,154.8 396.4,154.8 Z" id="Shape" fill="#443356" fill-rule="nonzero"></path>
            <polygon id="Shape" fill="#443356" fill-rule="nonzero" opacity="0.15" points="535 336.4 487.5 208.9 457.3 222.6 500.9 336.4"></polygon>
            <polygon id="Shape" fill="#443356" fill-rule="nonzero" opacity="0.15" points="548.8 186.1 601 326.3 570.8 336.4 518.6 199.8"></polygon>
            <polygon id="Shape" fill="#443356" fill-rule="nonzero" opacity="0.15" points="468.4 344.7 426.3 231.7 396.1 245.3 431.5 337.9"></polygon>
            <g id="Group" transform="translate(381.000000, 74.000000)" fill-rule="nonzero">
                <g id="Shape" transform="translate(93.000000, 0.000000)">
                    <path d="M51.2,116.1 C51.2,116.1 44,71 32.5,60.9 L31.5,60.4 C25.2,57.5 19.7,53.1 15.5,47.6 C12.3,43.5 7.9,38.6 2.3,35.3 C0.6,34.2 0.8,31.7 2.7,31 C3.2,30.8 3.8,30.8 4.3,31 C5.9,31.5 9.4,32.9 11.9,34.7 C13.6,35.9 15.5,36.6 17.6,36.7 L17.8,35.6 C18.6,30.3 18.2,24.9 16.6,19.7 L13.3,8.8 C13.2,7.4 14.5,6.3 15.9,6.5 L17.6,6.8 L16.2,2.9 C16.7,1.9 18,1.6 18.9,2.3 C21.6,4.5 23.9,7.2 25.7,10.3 L27.9,14.2 C30.4,14.9 32.5,16.5 33.7,18.7 L35.5,22 L37.1,22.6 C39,23.3 40.7,24.8 41.6,26.6 L44.5,32.2 C44.5,32.2 48.6,37.4 49.7,46.3 C50.8,55.3 53.7,63.9 57.9,71.9 C63.9,83.5 71,98.7 72.1,107.1" id="Path" fill="#FFFFFF"></path>
                    <path d="M51.2,117.1 C50.7,117.1 50.3,116.7 50.2,116.3 C50.1,115.9 43,71.7 31.9,61.8 L31,61.4 C24.6,58.4 18.9,53.9 14.6,48.3 C10.6,43.1 6.1,38.9 1.7,36.2 C0.6,35.5 -0.1,34.3 0.1,33 C0.2,31.7 1.1,30.6 2.3,30.1 C3.1,29.8 3.9,29.8 4.6,30.1 C6.4,30.7 9.9,32.1 12.5,34 C13.8,34.9 15.2,35.5 16.7,35.7 L16.7,35.5 C17.5,30.4 17.1,25 15.6,20.1 L12.2,9 C12.2,8.9 12.2,8.8 12.2,8.7 C12.2,7.7 12.6,6.8 13.3,6.2 C14,5.6 15,5.3 16,5.5 L15.2,3.2 C15.1,2.9 15.1,2.7 15.2,2.4 C15.6,1.6 16.3,1.1 17.1,0.9 C17.9,0.7 18.8,0.9 19.4,1.4 C22.2,3.7 24.6,6.5 26.4,9.7 L28.4,13.2 C31,14 33.1,15.8 34.4,18.1 L36,21 L37.3,21.5 C39.5,22.3 41.3,23.9 42.4,26 L45.3,31.5 C45.8,32.2 49.6,37.4 50.7,46 C51.7,54.4 54.5,63 58.8,71.3 C64.7,82.8 72,98.3 73.1,106.8 C73.2,107.3 72.8,107.8 72.2,107.9 C71.7,108 71.2,107.6 71.1,107 C70.1,98.7 62.9,83.5 57,72.1 C52.6,63.5 49.8,54.8 48.7,46.1 C47.6,37.6 43.7,32.6 43.7,32.5 C43.7,32.4 43.6,32.4 43.6,32.3 L40.7,26.7 C39.8,25.1 38.4,23.8 36.7,23.2 L35.1,22.6 C34.9,22.5 34.7,22.4 34.6,22.2 L32.8,18.9 C31.7,16.9 29.8,15.4 27.6,14.9 C27.3,14.8 27.1,14.7 27,14.4 L24.8,10.5 C23.1,7.5 20.9,5 18.3,2.8 C18.1,2.6 17.8,2.6 17.7,2.7 C17.6,2.7 17.5,2.7 17.4,2.8 L18.6,6.2 C18.7,6.5 18.7,6.9 18.4,7.2 C18.2,7.5 17.8,7.6 17.5,7.5 L15.8,7.2 C15.4,7.1 15.1,7.2 14.8,7.5 C14.5,7.7 14.4,8 14.4,8.3 L17.7,19 C19.3,24.2 19.7,29.9 18.9,35.3 L18.7,36.4 C18.6,36.9 18.2,37.3 17.7,37.3 C15.5,37.3 13.3,36.5 11.5,35.2 C9,33.4 5.5,32.1 4.2,31.6 C3.9,31.5 3.6,31.5 3.2,31.6 C2.7,31.8 2.4,32.2 2.3,32.8 C2.2,33.4 2.5,33.9 3,34.2 C7.7,37.1 12.3,41.3 16.5,46.8 C20.6,52.2 26,56.5 32.1,59.3 L33.1,59.8 C33.2,59.8 33.3,59.9 33.3,60 C45,70.2 52.1,113.9 52.4,115.7 C52.5,116.2 52.1,116.8 51.6,116.8 C51.3,117.1 51.2,117.1 51.2,117.1 Z" id="Path" fill="#443356"></path>
                </g>
                <g id="Shape" transform="translate(1.000000, 46.000000)">
                    <path d="M3.3,123 C3.3,123 -0.5,94.5 4.8,57.3 C5.3,53.7 5.3,49.9 4.6,46.3 L3.7,41.6 C2.4,34.5 2.4,27.2 3.7,20.1 L6,14.3 L6,14.2 C6.7,12.5 8.9,12.1 10.2,13.5 L12.6,9.6 C13.8,7.6 16.6,7.2 18.4,8.7 L20.6,5.4 L23.1,2.4 C24.4,0.8 27,1.3 27.5,3.3 C29.1,1.6 32,2.2 32.7,4.4 L32.8,4.6 C33,5.2 33,5.8 32.8,6.4 C31.7,10.3 27.5,25.5 27.4,33.2 C27.4,34.3 28.5,34.9 29.5,34.4 C31.6,33.2 33.2,31.3 34,29.1 L35.3,25.6 C36,23.7 38,22.6 40,22.9 L37.8,34.8 C37.4,36.8 36.5,38.6 35,40 C33.2,41.7 30.5,44.3 27.5,46.9 C24,49.9 22.1,54.2 22.1,58.7 C22.1,71.6 22.3,97.8 24.4,109.3 L14.6,123.2 L3.3,123 Z" id="Path" fill="#FFFFFF"></path>
                    <path d="M14.8,124.4 C14.8,124.4 14.7,124.4 14.8,124.4 L3.3,124 C2.8,124 2.4,123.6 2.3,123.1 C2.3,122.8 -1.5,94 3.8,57.2 C4.3,53.6 4.3,50 3.6,46.5 L2.7,41.8 C1.4,34.6 1.4,27.2 2.7,20 C2.7,19.9 2.7,19.9 2.8,19.8 L5.1,13.9 C5.6,12.6 6.9,11.7 8.3,11.7 C8.9,11.7 9.4,11.8 9.9,12.1 L11.7,9.2 C12.6,7.8 14.1,6.9 15.8,6.9 C16.6,6.9 17.3,7.1 18,7.4 L19.7,4.9 L22.2,1.8 C22.9,1 23.9,0.5 24.9,0.5 C26,0.5 27,1 27.7,1.8 C28.3,1.5 28.9,1.3 29.6,1.3 C31.4,1.3 32.9,2.4 33.5,4.1 L33.6,4.3 C33.9,5.1 33.9,5.9 33.6,6.7 C32.7,9.8 28.3,25.6 28.2,33.3 C28.2,33.4 28.2,33.5 28.3,33.6 C28.4,33.7 28.6,33.8 28.8,33.7 C30.7,32.6 32.1,30.9 32.9,28.9 L34.2,25.4 C35.1,23.1 37.6,21.7 40.1,22.1 C40.4,22.1 40.6,22.3 40.7,22.5 C40.8,22.7 40.9,23 40.9,23.2 L38.7,35.1 C38.3,37.3 37.2,39.3 35.6,40.9 C33.9,42.6 31.1,45.2 28.1,47.8 C24.9,50.6 23,54.6 23,58.9 C23,72.9 23.3,98.1 25.3,109.3 C25.3,109.6 25.3,109.8 25.1,110.1 L15.3,124 C15.4,124.2 15.1,124.4 14.8,124.4 Z M4.2,122 L14.2,122.3 L23.4,109.2 C21.4,97.6 21.1,72.7 21.2,58.8 C21.2,54 23.3,49.4 27,46.2 C30,43.6 32.7,41.1 34.4,39.4 C35.7,38.1 36.6,36.5 36.9,34.7 L38.9,23.9 C37.7,24.1 36.7,24.8 36.3,26 L35,29.5 C34.1,31.9 32.3,34 30.1,35.3 C29.2,35.8 28,35.7 27.2,34.9 C26.8,34.4 26.5,33.8 26.5,33.2 C26.6,25.5 30.7,10.5 32,6.1 C32.1,5.7 32.1,5.3 32,4.9 L31.9,4.7 C31.6,3.8 30.8,3.3 29.9,3.3 C29.3,3.3 28.8,3.5 28.4,4 C28.2,4.3 27.8,4.4 27.4,4.3 C27,4.2 26.8,3.9 26.7,3.6 C26.5,2.8 25.8,2.5 25.2,2.5 C24.7,2.5 24.3,2.7 24,3.1 L21.5,6.1 L19.3,9.3 C19.1,9.5 18.9,9.7 18.6,9.7 C18.3,9.7 18,9.7 17.8,9.5 C17.3,9.1 16.6,8.8 16,8.8 C15,8.8 14.1,9.3 13.6,10.1 L11.2,14 C11,14.3 10.7,14.4 10.4,14.5 C10.1,14.5 9.8,14.4 9.6,14.2 C9.3,13.9 8.9,13.7 8.5,13.7 C7.9,13.7 7.3,14.1 7.1,14.6 L4.8,20.4 C3.5,27.4 3.5,34.5 4.8,41.4 L5.7,46.1 C6.4,49.8 6.4,53.6 5.9,57.4 C1.1,90.5 3.7,117 4.2,122 Z" fill="#443356"></path>
                </g>
                <path d="M98.9,32.2 L93.7,17.2 C92.1,12.7 93.3,7.9 96.6,4.6 C99.9,1.3 104.7,0.2 109.1,1.8 L109.5,1.9 L108.8,3.8 L108.5,3.7 C104.8,2.4 100.9,3.2 98.1,6 C95.3,8.8 94.4,12.8 95.7,16.6 L100.9,31.6 L98.9,32.2 Z" id="Shape" fill="#443356"></path>
                <g id="Shape" transform="translate(46.000000, 134.000000)">
                    <path d="M37.6,123.5 C37.6,123.5 0.3,115 1.9,27.6 C1.9,27.6 45.5,1.7 79.7,1.7 C86.9,1.7 93.6,5.2 98.1,10.9 C107.6,23.1 123.4,48.3 122.5,79.7 L37.6,123.5 Z" id="Path" fill="#443B4F"></path>
                    <path d="M37.7,124.5 L37.3,124.4 C36.9,124.3 27.5,122 18.3,108.8 C9.9,96.8 0.1,72.9 0.9,27.5 L0.9,26.9 L1.4,26.6 C1.8,26.3 45.5,0.6 79.5,0.6 L79.7,0.6 C87.2,0.6 94.2,4.1 98.9,10.1 C108.5,22.4 124.4,47.8 123.5,79.6 L123.5,80.2 L37.7,124.5 Z M2.9,28.1 C2.2,72.4 11.7,95.7 19.8,107.5 C27.6,118.8 35.7,121.8 37.4,122.4 L121.4,79.1 C122.1,48.2 106.6,23.5 97.2,11.5 C92.9,5.9 86.5,2.7 79.6,2.7 L79.4,2.7 C48,2.7 7.8,25.3 2.9,28.1 Z" fill="#443356"></path>
                </g>
                <g id="Shape" transform="translate(46.000000, 106.000000)">
                    <path d="M2.6,86.4 L1.4,29.7 C1.3,23.6 5,18 10.7,16 C10.8,16 10.9,15.9 11,15.9 C18.1,13.5 25.8,17.2 28.6,24.2 L48.3,73.5 L66.9,64.2 L58.1,56.7 L45.4,19.8 C43.8,15 44.8,9.7 48.3,6.1 C49.7,4.6 51.6,3.2 54,2.1 C60.2,-0.6 67.4,1.8 71,7.5 L99.4,53.7 L92.6,80.7 L49.4,98.6 L15.5,103.3 L2.6,86.4 Z" id="Path" fill="#CFCAD3"></path>
                    <path d="M15,104.5 L1.6,86.8 L0.4,29.8 C0.3,23.2 4.3,17.3 10.4,15.2 L10.7,15.1 C12.2,14.6 13.8,14.3 15.4,14.3 C21.5,14.3 27.2,18.2 29.5,23.9 L48.8,72.2 L65.1,64 L57.3,57.3 L57.2,57 L44.5,20.1 C42.7,14.9 43.9,9.2 47.6,5.4 C49.3,3.6 51.3,2.2 53.6,1.2 C55.4,0.4 57.3,2.84217094e-14 59.3,2.84217094e-14 C64.3,2.84217094e-14 69.1,2.7 71.8,7 L100.4,53.6 L93.4,81.5 L49.5,99.7 L15,104.5 Z M3.6,86.1 L15.9,102.4 L49.1,97.8 L91.7,80.1 L98.3,54 L70.1,8.1 C67.8,4.4 63.7,2 59.3,2 C57.6,2 55.9,2.4 54.4,3 C52.4,3.9 50.6,5.2 49,6.8 C45.8,10.1 44.8,15 46.3,19.5 L58.9,56.1 L68.6,64.4 L47.8,75 L27.7,24.7 C25.7,19.7 20.8,16.3 15.5,16.3 C14.1,16.3 12.7,16.5 11.4,17 L11.1,17.1 C5.8,19 2.3,24.1 2.4,29.8 L3.6,86.1 Z" fill="#443356"></path>
                </g>
                <g id="Shape" transform="translate(0.000000, 106.000000)">
                    <path d="M170.9,71.2 C170.9,71.2 174,31.3 170.5,22.2 C172.3,22.5 173.9,21 173.7,19.2 C173.2,14.9 172,7.8 169.6,3.3 C168.7,1.7 166.9,0.8 165.1,1 C159.8,1.8 148,4.5 141.9,12.6 L141,25.5 L143.3,26.2 C143.3,26.2 141,50.2 136.9,57.7 L119.9,70.5 L109.4,86.4 L86.4,95.8 L81.3,95.9 C74,96.1 66.7,94.3 60.3,90.8 L33,62.3 L28.8,50.9 C28.3,49.6 26.8,48.9 25.5,49.5 C19.9,51.9 4.9,60.3 1.9,66.2 L4.8,80.2 C5.6,81.9 7.7,82.4 9.2,81.2 C9.2,81.2 30.1,114.5 45.8,123.5 C45.8,123.5 63.9,133.2 81.9,133.5 L97.7,135.5 L153.2,109.9 C153.1,109.9 171.5,94.1 170.9,71.2 Z" id="Path" fill="#9784D3"></path>
                    <path d="M97.6,136.5 C97.6,136.5 97.5,136.5 97.5,136.5 L81.7,134.5 C63.7,134.2 46,124.8 45.2,124.4 C30.6,116.1 12.1,87.8 8.8,82.5 C8.4,82.7 7.9,82.8 7.4,82.8 C5.9,82.8 4.5,81.9 3.9,80.6 C3.9,80.5 3.8,80.5 3.8,80.4 L0.9,66.4 C0.9,66.2 0.9,65.9 1,65.7 C4.2,59.5 19.3,51 25.1,48.5 C25.5,48.3 26,48.2 26.5,48.2 C28,48.2 29.3,49.1 29.8,50.5 L33.9,61.7 L61,90.2 C67.2,93.6 74.3,95.3 81.3,95.1 L86.2,95 L108.7,85.8 L119.1,70.1 C119.2,70 119.2,69.9 119.3,69.9 L136.1,57.2 C139.6,50.5 141.8,31.2 142.2,27 L140.7,26.5 C140.3,26.4 140,25.9 140,25.5 L140.9,12.6 C140.9,12.4 141,12.2 141.1,12.1 C147.5,3.6 159.9,0.9 164.9,0.1 C167.2,-0.3 169.4,0.9 170.5,2.9 C172.9,7.4 174.1,14.2 174.7,19.2 C174.8,20.3 174.5,21.3 173.8,22.1 C173.3,22.7 172.6,23.1 171.9,23.2 C174.7,34.2 172.1,69.1 171.9,71.3 C172.5,94.4 154,110.5 153.8,110.7 C153.7,110.8 153.7,110.8 153.6,110.8 L98.1,136.4 C97.9,136.5 97.8,136.5 97.6,136.5 Z M9.1,80.2 C9.2,80.2 9.2,80.2 9.3,80.2 C9.6,80.2 9.8,80.4 10,80.7 C10.2,81 31,113.9 46.2,122.7 C46.4,122.8 64.3,132.3 81.8,132.6 C81.8,132.6 81.9,132.6 81.9,132.6 L97.4,134.6 L152.5,109.1 C153.9,107.8 170.4,92.6 169.8,71.3 C169.8,71.3 169.8,71.2 169.8,71.2 C169.8,70.8 172.8,31.5 169.5,22.6 C169.4,22.3 169.4,21.9 169.7,21.6 C169.9,21.3 170.3,21.2 170.6,21.3 C171.2,21.4 171.8,21.2 172.2,20.8 C172.5,20.4 172.7,20 172.6,19.5 C172.1,15.6 171,8.3 168.6,3.9 C167.9,2.7 166.5,1.9 165.1,2.2 C160.4,2.9 148.7,5.5 142.7,13.2 L141.9,25 L143.4,25.5 C143.8,25.6 144.1,26.1 144.1,26.5 C144,27.5 141.8,50.8 137.6,58.4 C137.5,58.5 137.4,58.6 137.3,58.7 L120.5,71.4 L110.1,87.2 C110,87.4 109.8,87.5 109.6,87.6 L86.6,97 C86.5,97 86.4,97.1 86.2,97.1 L81.1,97.2 C73.6,97.4 66.2,95.6 59.6,92 C59.5,92 59.4,91.9 59.4,91.8 L32.3,63 C32.2,62.9 32.1,62.8 32.1,62.7 L27.9,51.3 C27.6,50.5 26.7,50.1 25.9,50.4 C19.6,53.1 5.9,61.1 2.9,66.3 L5.7,79.8 C6.2,80.8 7.6,81.1 8.5,80.4 C8.7,80.3 8.9,80.2 9.1,80.2 Z" fill="#443356"></path>
                </g>
                <path d="M10,187.6 L8.2,186.8 C11.5,179.3 31.6,167.9 32.5,167.4 L33.5,169.1 C33.3,169.3 13,180.7 10,187.6 Z" id="Shape" fill="#443356"></path>
                <path d="M143.6,133.2 L142.9,131.3 C143.6,131 160.3,124.9 170.7,127.2 L170.3,129.2 C160.4,127.1 143.8,133.2 143.6,133.2 Z" id="Shape" fill="#443356"></path>
                <g transform="translate(3.000000, 96.000000)">
                    <path d="M21.2,11 L1.7,10.5 C0.8,10.5 -2.35922393e-16,9.7 0.1,8.8 L0.2,5 C0.2,4.1 1,3.3 1.9,3.4 L21.4,3.9 C22.3,3.9 23.1,4.7 23,5.6 L22.9,9.4 C22.9,10.3 22.1,11.1 21.2,11 Z" id="Shape" fill="#443356"></path>
                    <g transform="translate(4.000000, 0.000000)">
                        <circle id="Oval" fill="#FFFFFF" cx="7.5" cy="7.2" r="5.9"></circle>
                        <path d="M7.5,14.1 C7.5,14.1 7.5,14.1 7.5,14.1 L7.3,14.1 C3.5,14 0.5,10.8 0.6,7 C0.7,3.2 3.7,0.3 7.5,0.3 L7.7,0.3 C11.5,0.4 14.5,3.6 14.4,7.4 C14.4,11.2 11.3,14.1 7.5,14.1 Z M7.5,2.3 C4.8,2.3 2.7,4.4 2.6,7.1 C2.5,9.8 4.7,12.1 7.4,12.1 L7.5,12.1 C10.1,12.1 12.3,10 12.4,7.3 C12.5,4.6 10.3,2.3 7.6,2.3 L7.5,2.3 Z" id="Shape" fill="#443356"></path>
                    </g>
                </g>
                <g transform="translate(60.000000, 205.000000)">
                    <g id="Shape">
                        <path d="M3.1,56 C22.1,44.1 71.9,15.3 126.2,1.4 C129.3,0.6 132,3.6 131,6.6 C129.3,11.5 125.7,15.6 120.9,17.7 L19.3,62.9 C15.7,64.5 11.6,64.9 7.7,64.1 L4.4,63.4 C0.8,62.6 8.8817842e-16,57.9 3.1,56 Z" id="Path" fill="#796B87"></path>
                        <path d="M11.7,65.5 C10.3,65.5 8.9,65.3 7.5,65 L4.2,64.3 C2.2,63.9 0.7,62.3 0.3,60.3 C-0.1,58.3 0.8,56.3 2.6,55.2 C21.6,43.4 71.5,14.4 126,0.4 C128,-0.1 130.1,0.7 131.3,2.3 C132.3,3.6 132.5,5.3 132,6.8 C130.2,12 126.4,16.3 121.4,18.5 L19.8,63.7 C17.2,64.9 14.5,65.5 11.7,65.5 Z M127.2,2.2 C126.9,2.2 126.7,2.2 126.4,2.3 C72.2,16.2 22.5,45 3.6,56.8 C2.3,57.6 2.1,58.9 2.2,59.9 C2.4,60.9 3.1,62 4.5,62.3 L7.8,63 C11.5,63.8 15.3,63.4 18.8,61.9 L120.4,16.7 C124.9,14.7 128.4,10.9 130,6.2 C130.3,5.3 130.2,4.3 129.6,3.5 C129.1,2.7 128.1,2.2 127.2,2.2 Z" fill="#443356"></path>
                    </g>
                    <g transform="translate(54.000000, 31.000000)" fill="#443356">
                        <rect id="Rectangle-path" transform="translate(18.643995, 12.438280) rotate(-24.004376) translate(-18.643995, -12.438280) " x="2.19425417" y="8.53834143" width="32.8994817" height="7.79987711"></rect>
                        <path d="M4.7,24 L0.7,15 L32.6,0.8 L36.6,9.8 L4.7,24 Z M3.4,16 L5.8,21.3 L34,8.7 L31.6,3.4 L3.4,16 Z" id="Shape"></path>
                    </g>
                    <g id="Shape" transform="translate(65.000000, 46.000000)" fill="#443356">
                        <path d="M22.2,7.3 L5.4,14.8 C4.3,15.3 2.9,14.8 2.4,13.7 L1.6,12 C1.1,10.9 1.6,9.5 2.7,9 L19.5,1.5 C20.6,1 22,1.5 22.5,2.6 L23.3,4.3 C23.8,5.5 23.3,6.8 22.2,7.3 Z" id="Path"></path>
                        <path d="M4.4,16 C3.1,16 2,15.2 1.4,14.1 L0.6,12.4 C0.2,11.6 0.2,10.7 0.5,9.9 C0.8,9.1 1.4,8.4 2.2,8.1 L19,0.6 C19.4,0.4 19.9,0.3 20.3,0.3 C21.6,0.3 22.7,1.1 23.3,2.2 L24.1,3.9 C24.5,4.7 24.5,5.6 24.2,6.4 C23.9,7.2 23.3,7.9 22.5,8.2 L5.7,15.7 C5.3,15.9 4.9,16 4.4,16 Z M20.5,2.3 C20.3,2.3 20.2,2.3 20,2.4 L3.2,9.9 C2.6,10.2 2.3,10.9 2.6,11.6 L3.4,13.3 C3.7,13.9 4.4,14.2 5,13.9 L21.8,6.4 C22.1,6.3 22.3,6 22.5,5.7 C22.6,5.4 22.6,5 22.5,4.7 L21.7,3 C21.4,2.5 21,2.3 20.5,2.3 Z"></path>
                    </g>
                    <rect id="Rectangle-path" fill="#443356" transform="translate(75.195580, 49.131590) rotate(-24.004376) translate(-75.195580, -49.131590) " x="70.1956588" y="46.8316262" width="9.99984245" height="4.59992753"></rect>
                </g>
                <path d="M90.3,198.5 C90.3,198.5 77.6,189.6 94.6,175.5 L108.1,182.1 L102.2,200.7 L90.3,198.5 Z" id="Shape" fill="#FFFFFF"></path>
                <g id="Shape" transform="translate(84.000000, 161.000000)" fill="#443356">
                    <path d="M9.9,26.6 C9.9,26.6 29.8,-8.6 56,4.1 L48.6,8.2 L60.3,11 L59.4,15.7 C59.4,15.7 75,42.4 52.9,65.9 C50.6,68.3 47.7,70 44.5,70.7 C44.4,70.7 44.3,70.8 44.1,70.8 C24.3,75 5.2,61.1 2.4,41 L2.1,38.8 C1.4,33.4 4.7,28.3 9.9,26.6 Z" id="Path"></path>
                    <path d="M37,72.5 C19.2,72.5 3.9,59 1.4,41.1 L1.1,38.9 C0.3,33.1 3.7,27.6 9.2,25.7 C11.1,22.5 24.8,0.2 44.4,0.2 C48.4,0.2 52.5,1.2 56.4,3.1 L58.1,3.9 L51.2,7.7 L61.3,10.1 L60.3,15.4 C62,18.6 74.5,44.1 53.5,66.4 C51.1,69 48,70.7 44.6,71.5 L44.2,71.6 C41.9,72.2 39.4,72.5 37,72.5 Z M44.4,2.3 C24.9,2.3 10.9,26.8 10.7,27.1 L10.5,27.4 L10.1,27.5 C5.3,29 2.4,33.7 3,38.6 L3.3,40.8 C5.6,57.7 20,70.4 36.9,70.4 C39.2,70.4 41.5,70.2 43.8,69.7 L44.1,69.6 C47.1,68.9 49.9,67.4 52,65.1 C73.3,42.4 58.5,16.4 58.3,16.1 L58.1,15.8 L58.9,11.7 L45.6,8.6 L53.6,4.2 C50.6,3 47.5,2.3 44.4,2.3 Z"></path>
                </g>
                <g id="Shape" transform="translate(85.000000, 160.000000)">
                    <g id="Group" transform="translate(21.000000, 0.000000)">
                        <path d="M17.2,2.8 C17.1,4.9 13.8,7.6 10.1,9.2 C6.3,10.8 2.8,10.9 2,9.2 C1.2,7.5 4.2,4.2 8.9,2.3 C13.5,0.3 17.3,0.7 17.2,2.8 Z" id="Path" fill="#FFFFFF"></path>
                        <path d="M4.8,11.4 C2.2,11.4 1.3,10.3 1,9.6 C0.8,9.2 0.6,8.4 1,7.4 C1.8,5.3 4.7,2.9 8.4,1.3 C10.5,0.4 12.5,0 14.2,0 C15.7,0 16.8,0.4 17.5,1.1 C18,1.6 18.2,2.2 18.1,2.9 C17.9,5.7 14,8.7 10.4,10.2 C8.4,11 6.4,11.4 4.8,11.4 Z M14.3,2 C12.9,2 11.1,2.4 9.2,3.2 C5.7,4.6 3.4,6.8 2.9,8.1 C2.8,8.4 2.8,8.6 2.8,8.7 C3,9.1 3.7,9.4 4.8,9.4 C6.2,9.4 7.9,9 9.7,8.3 C13.6,6.7 16.1,4.1 16.2,2.7 C16.2,2.5 16.2,2.5 16.1,2.4 C15.9,2.2 15.3,2 14.3,2 Z" id="Shape" fill="#443356"></path>
                    </g>
                    <g id="Group" transform="translate(0.000000, 11.000000)">
                        <path d="M16.4,1.7 C17.4,3.3 15.3,6.2 11.9,8.5 C8.5,10.8 4.4,11.9 2.6,10.9 C0.8,9.9 2.6,6.4 6.8,3.6 C11,0.8 15.4,0.1 16.4,1.7 Z" id="Path" fill="#FFFFFF"></path>
                        <path d="M4.4,12.3 C3.5,12.3 2.7,12.1 2.1,11.8 C1.4,11.4 0.9,10.6 0.9,9.8 C0.8,7.8 2.9,5.1 6.2,2.9 C9,1.1 11.9,0 14.2,0 C16,0 16.8,0.7 17.2,1.3 C18.7,3.7 15.9,7.1 12.4,9.5 C9.7,11.1 6.6,12.3 4.4,12.3 Z M14.2,1.9 C12.8,1.9 10.2,2.6 7.3,4.5 C4.4,6.5 2.8,8.6 2.9,9.7 C2.9,9.9 3,10 3.1,10.1 C3.4,10.3 3.8,10.4 4.4,10.4 C6.3,10.4 9,9.4 11.4,7.8 C14.8,5.5 16,3.1 15.6,2.4 C15.4,2 15,1.9 14.2,1.9 Z" id="Shape" fill="#443356"></path>
                    </g>
                    <g id="Group" transform="translate(15.000000, 8.000000)">
                        <path d="M1.4,4.7 C4,4.4 6.2,3.2 7.9,1.2 C7.9,1.2 7.9,1.2 7.9,1.1" id="Path" fill="#FFFFFF"></path>
                        <path d="M1.4,5.7 C0.9,5.7 0.5,5.3 0.4,4.8 C0.3,4.3 0.7,3.8 1.3,3.7 C3.6,3.4 5.6,2.3 7.2,0.6 C7.6,0.2 8.2,0.1 8.6,0.5 C9,0.9 9.1,1.5 8.7,1.9 C8.7,1.9 8.6,2 8.6,2 C6.7,4.1 4.3,5.4 1.5,5.8 C1.5,5.7 1.4,5.7 1.4,5.7 Z" id="Path" fill="#443356"></path>
                    </g>
                </g>
                <g id="Shape" transform="translate(95.000000, 161.000000)">
                    <path d="M1.5,11.1 L2.9,7.1 C4.1,3.4 8,1.2 11.8,2.1 L16.4,3.1" id="Path" fill="#FFFFFF"></path>
                    <path d="M1.5,12.1 C1.4,12.1 1.3,12.1 1.2,12 C0.7,11.8 0.4,11.3 0.6,10.7 L2,6.7 C3.4,2.5 7.7,0.1 12.1,1 L16.7,2 C17.2,2.1 17.6,2.7 17.5,3.2 C17.4,3.7 16.8,4.1 16.3,4 L11.7,3 C8.4,2.3 5.1,4.1 4,7.3 L2.6,11.3 C2.3,11.9 1.9,12.1 1.5,12.1 Z" id="Path" fill="#443356"></path>
                </g>
                <path d="M86.5,193.3 L86,192 C84.9,189.3 85.1,186.3 86.5,183.8 L88.2,184.8 C87.1,186.8 86.9,189.2 87.8,191.3 L88.3,192.6 L86.5,193.3 Z" id="Shape" fill="#443356"></path>
                <g id="Shape" opacity="0.35" transform="translate(47.000000, 107.000000)" fill="#443356">
                    <path d="M27.6,23.3 C24.8,16.4 17.1,12.6 10,15 C9.9,15 9.8,15.1 9.7,15.1 C4,17.1 0.2,22.7 0.4,28.8 L0.9,51 L33.9,39 L27.6,23.3 Z" id="Path"></path>
                    <path d="M70,6.6 C66.5,0.8 59.2,-1.6 53,1.2 C50.6,2.3 48.8,3.7 47.3,5.2 C43.8,8.8 42.8,14.2 44.4,18.9 L49.4,33.5 L79.7,22.5 L70,6.6 Z" id="Path"></path>
                </g>
            </g>
            <polygon id="Shape" fill="#443356" fill-rule="nonzero" opacity="0.15" points="610.1 163.4 662.2 303.5 632.1 313.7 579.8 177"></polygon>
            <polygon id="Shape" fill="#443356" fill-rule="nonzero" opacity="0.15" points="396.9 339.5 365 254.4 334.8 268.1 365.5 339.5"></polygon>
        </g>
    </g>
</svg>